PathFileType   4   (X/Y/Z)
DataRate	CameraRate	NumFrames	NumMarkers	Units	OrigDataRate	OrigDataStartFrame	OrigNumFrames
120.0	120.0	7	37	mm	120.0	40	105
Frame#	Time	midhip	hip_r	hip_l	knee_r	knee_l	ankle_r	ankle_l	midasis	asis_r	asis_l	psis_r	psis_l	epicondLat_r	epicondLat_l	epicondMed_r	epicondMed_l	malleolusLat_r	malleolusLat_l	malleolusMedv_r	malleolusMedv_l	neck	subclavicle_r	subclavicle_l	sternalnotch	xyphoidprocess	thighwand_r	thighwand_l	upperleg1_r	upperleg1_l	upperleg2_r	upperleg2_l	shankwand_r	shankwand_l	lowerleg1_r	lowerleg1_l	toe_r	toe_l
 	 	X1	Y1	Z1	X2	Y2	Z2	X3	Y3	Z3	X4	Y4	Z4	X5	Y5	Z5	X6	Y6	Z6	X7	Y7	Z7	X8	Y8	Z8	X9	Y9	Z9	X10	Y10	Z10	X11	Y11	Z11	X12	Y12	Z12	X13	Y13	Z13	X14	Y14	Z14	X15	Y15	Z15	X16	Y16	Z16	X17	Y17	Z17	X18	Y18	Z18	X19	Y19	Z19	X20	Y20	Z20	X21	Y21	Z21	X22	Y22	Z22	X23	Y23	Z23	X24	Y24	Z24	X25	Y25	Z25	X26	Y26	Z26	X27	Y27	Z27	X28	Y28	Z28	X29	Y29	Z29	X30	Y30	Z30	X31	Y31	Z31	X32	Y32	Z32	X33	Y33	Z33	X34	Y34	Z34	X35	Y35	Z35	X36	Y36	Z36	X37	Y37	Z37

	40	0.43333	915.533	729.016	-210.598	887.911	724.747	-151.527	906.196	721.927	-280.523	791.821	402.568	-194.279	1041.295	418.807	-277.552	675.267	75.714	-224.040	1193.535	94.357	-292.341	972.699	785.650	-206.665	958.705	787.809	-107.943	986.692	783.492	-305.387	817.009	841.688	-200.465	822.807	836.416	-254.807	781.190	398.598	-140.463	1041.234	418.246	-332.049	805.331	413.538	-239.974	1041.619	379.106	-236.554	663.831	76.541	-188.335	1186.707	92.809	-328.672	678.703	80.646	-249.297	1198.000	96.028	-263.233	858.047	1199.820	-228.280	965.208	1143.202	-184.329	969.071	1144.680	-260.750	952.538	1142.512	-224.702	981.866	1060.697	-222.394	904.228	488.772	-57.280	1122.124	578.531	-285.674	852.882	565.813	-94.754	1033.445	601.055	-323.480	832.306	484.274	-120.105	1058.786	517.467	-320.195	679.475	181.197	-103.911	1147.181	216.471	-398.822	678.854	152.521	-182.770	1152.202	172.164	-327.728	760.685	35.197	-197.444	1297.416	102.591	-303.106
	41	0.44167	927.894	726.881	-211.317	900.216	722.367	-152.012	918.525	720.051	-281.014	798.942	401.896	-194.020	1052.435	416.971	-276.071	676.178	77.289	-223.274	1211.772	95.223	-289.401	984.845	783.693	-206.924	970.820	785.468	-108.102	998.871	781.918	-305.746	829.101	839.300	-200.970	834.938	834.162	-255.335	788.012	398.300	-140.237	1052.331	416.036	-330.563	812.756	412.590	-239.828	1049.343	378.079	-233.307	664.910	78.329	-187.522	1205.059	93.405	-325.742	679.498	82.097	-248.554	1216.422	97.582	-260.285	869.835	1197.626	-228.538	977.042	1140.916	-184.742	981.271	1142.689	-260.963	964.567	1140.362	-225.093	993.997	1058.579	-222.953	912.135	487.030	-57.031	1133.590	575.840	-285.319	862.143	564.499	-94.841	1045.163	599.172	-323.183	840.413	483.221	-120.051	1068.980	514.741	-318.844	682.849	182.641	-103.168	1163.027	216.077	-396.299	681.230	154.144	-181.835	1168.802	172.164	-325.073	760.884	35.288	-197.219	1315.771	105.752	-300.217
	42	0.45000	940.353	724.727	-212.120	912.739	719.948	-152.566	930.974	718.242	-281.588	806.541	401.155	-193.724	1064.143	415.450	-274.704	677.331	79.145	-222.413	1227.399	95.101	-286.086	997.169	781.740	-207.261	983.181	783.049	-108.295	1011.157	780.431	-306.226	841.342	836.914	-201.337	847.172	831.981	-255.729	795.399	397.926	-139.961	1064.116	414.199	-329.189	821.240	411.770	-239.887	1061.626	377.549	-232.877	666.233	80.409	-186.615	1220.689	92.972	-322.410	680.463	83.854	-247.665	1232.210	98.079	-256.876	881.680	1195.473	-228.848	988.863	1138.720	-185.034	991.590	1140.039	-261.311	975.589	1137.999	-225.116	1004.658	1056.084	-223.087	920.678	485.229	-56.802	1145.717	574.120	-284.760	871.930	563.108	-94.756	1057.867	598.370	-323.155	849.290	482.102	-120.023	1081.713	514.209	-318.492	686.537	184.275	-102.349	1177.172	214.736	-393.653	683.982	155.893	-180.893	1183.231	171.273	-322.077	761.168	35.377	-197.015	1331.483	107.031	-297.122
	43	0.45833	953.001	722.652	-212.960	925.481	717.537	-153.166	943.584	716.515	-282.214	814.642	400.384	-193.418	1076.439	414.177	-273.473	678.761	81.264	-221.457	1240.369	93.835	-282.498	1009.692	779.818	-207.644	995.784	780.603	-108.498	1023.600	779.033	-306.789	853.748	834.563	-201.567	859.544	829.904	-255.976	803.366	397.502	-139.664	1076.638	412.689	-327.952	829.612	411.445	-240.358	1073.445	377.322	-232.351	667.818	82.775	-185.621	1233.586	91.386	-318.788	681.612	85.940	-246.726	1245.338	97.262	-253.174	893.553	1193.458	-229.193	1000.744	1136.577	-185.304	1002.676	1137.842	-261.981	987.050	1135.866	-225.430	1015.924	1053.877	-223.649	929.843	483.397	-56.604	1158.426	573.095	-283.906	882.041	561.699	-94.497	1071.273	597.943	-323.139	858.303	480.788	-120.218	1094.820	513.747	-318.046	690.523	186.147	-101.477	1189.706	212.429	-390.935	686.994	157.843	-179.963	1195.703	169.471	-318.806	761.546	35.463	-196.820	1344.547	106.167	-293.805
	44	0.46667	965.806	720.624	-213.803	938.449	715.179	-153.797	956.408	714.882	-282.869	823.222	399.613	-193.111	1089.292	413.089	-272.384	680.497	83.624	-220.410	1250.825	91.466	-278.770	1022.449	777.948	-208.040	1008.626	778.176	-108.688	1036.273	777.719	-307.392	866.369	832.291	-201.664	872.103	827.951	-256.084	811.900	397.049	-139.350	1089.891	411.460	-326.856	836.977	410.741	-240.152	1085.297	377.109	-231.710	669.687	85.409	-184.546	1243.954	88.735	-315.024	683.240	88.275	-245.746	1255.848	95.012	-249.368	905.398	1191.570	-229.574	1012.671	1134.521	-185.778	1015.716	1136.244	-262.552	999.565	1134.006	-226.172	1028.660	1052.094	-224.449	939.637	481.556	-56.475	1171.577	572.461	-282.663	892.673	560.221	-94.337	1085.219	597.565	-322.908	867.315	479.233	-120.173	1108.321	513.289	-317.380	694.807	188.301	-100.561	1200.896	209.300	-388.152	690.345	160.006	-179.030	1206.465	166.823	-315.435	762.022	35.550	-196.605	1355.079	103.068	-290.208
	45	0.47500	978.760	718.636	-214.708	951.641	712.918	-154.439	969.439	713.362	-283.532	832.257	398.874	-192.809	1102.641	412.163	-271.404	682.528	86.198	-219.273	1259.263	88.358	-275.065	1035.456	776.141	-208.440	1021.729	775.798	-108.880	1049.183	776.484	-307.999	879.280	830.154	-201.644	884.876	826.159	-256.074	820.994	396.584	-139.023	1103.806	410.485	-325.866	842.575	409.322	-238.338	1097.362	376.861	-230.984	671.826	88.286	-183.393	1252.320	85.410	-311.288	685.296	90.873	-244.670	1264.354	91.633	-245.552	917.205	1189.771	-230.007	1024.614	1132.705	-186.403	1028.369	1134.656	-263.113	1011.885	1132.273	-226.906	1041.167	1050.429	-225.145	950.075	479.732	-56.455	1185.043	572.021	-281.006	903.915	558.678	-94.259	1099.529	597.229	-322.391	876.227	477.545	-119.368	1122.179	512.838	-316.461	699.392	190.777	-99.597	1211.149	205.597	-385.262	694.115	162.344	-178.055	1215.726	163.514	-312.099	762.606	35.641	-196.353	1363.373	97.858	-286.238
	46	0.48333	991.918	716.771	-215.842	965.039	710.800	-155.060	982.602	711.993	-284.182	841.801	398.186	-192.515	1116.355	411.449	-270.493	684.820	88.997	-218.025	1266.425	85.046	-271.555	1048.695	774.409	-208.855	1035.128	773.488	-109.112	1062.262	775.330	-308.598	892.532	828.214	-201.525	897.850	824.598	-255.963	830.688	396.118	-138.689	1118.209	409.795	-324.937	860.825	406.511	-238.275	1110.591	376.353	-230.695	674.203	91.426	-182.142	1259.462	81.962	-307.763	687.640	93.743	-243.425	1269.770	87.093	-241.722	928.961	1187.953	-230.484	1036.651	1131.173	-187.023	1040.707	1133.224	-263.717	1024.087	1130.736	-227.579	1053.685	1049.005	-225.790	961.153	477.959	-56.546	1198.706	571.741	-279.017	915.574	557.153	-94.160	1114.136	596.979	-321.563	890.820	477.000	-118.801	1136.741	512.478	-315.455	704.284	193.622	-98.574	1220.811	202.130	-382.357	698.229	164.914	-177.020	1223.561	159.730	-308.866	763.316	35.731	-196.072	1370.424	91.003	-281.955
